<svg xmlns="http://www.w3.org/2000/svg" width="149.649" height="37.342" viewBox="0 0 149.649 37.342">
  <g id="logo" transform="translate(-88.785 -397.389)">
    <path id="Path_1" data-name="Path 1" d="M295.368,418.428a12.172,12.172,0,0,0-1.466-1.24,8.931,8.931,0,0,0,2.82-1.073,8.171,8.171,0,0,0,2.087-1.8,7.741,7.741,0,0,0,1.3-2.426,9.486,9.486,0,0,0,.451-2.82,7.49,7.49,0,0,0-1.24-4.512,9.508,9.508,0,0,0-3.158-2.821,15.029,15.029,0,0,0-4.231-1.467,25.292,25.292,0,0,0-4.512-.394H248.438l4.682,6.656h34.972a5.654,5.654,0,0,1,3.214.733,2.446,2.446,0,0,1,1.129,2.257,2.394,2.394,0,0,1-1.241,2.086,5.884,5.884,0,0,1-3.1.789H257.519l8.968,13.144h7.22v-6.769h12.184l5.7,6.769h10.6l-4.738-4.964c-.846-.9-1.58-1.635-2.087-2.143" transform="translate(-130.603 -2.03)" fill="#00a2ff"/>
    <path id="Path_2" data-name="Path 2" d="M128.152,417.02H107.846l4.06-5.923,3.272-4.682,4.625,6.769.4.508h9.589l-9.364-13.425a6.968,6.968,0,0,0-2.03-2.031,5.059,5.059,0,0,0-2.99-.846,4.945,4.945,0,0,0-3.1.9,7.544,7.544,0,0,0-2.03,1.974l-6.036,8.406L97.861,417.7l-4.118,5.81h42.7l-4.455-6.487Z" transform="translate(-4.056 -0.001)" fill="#00a2ff"/>
    <path id="Path_3" data-name="Path 3" d="M618.106,417.7l-6.318-8.969-5.867-8.461a7.552,7.552,0,0,0-2.03-1.975,5.129,5.129,0,0,0-3.046-.9,5.056,5.056,0,0,0-2.991.846,8.678,8.678,0,0,0-2.03,2.031l-9.194,13.481h9.42l.395-.507,4.57-6.769,3.271,4.681,4,5.923h-23.86l-.17.283-2.82-2.256c-1.636-1.354-2.99-2.426-4.061-3.159-1.072-.79-1.918-1.41-2.708-1.918.394-.282.846-.508,1.24-.79s.9-.621,1.411-.959,1.071-.789,1.749-1.241c.676-.508,1.409-1.071,2.256-1.692l9.815-7.389H579.636l-7.446,6.148c-1.183.959-2.143,1.8-2.877,2.482s-1.354,1.241-1.861,1.692c.057-.677.114-1.354.114-2.143s.056-1.523.056-2.313v-5.979h-7.954v25.665h7.954v-7.39c0-.62,0-1.241-.056-1.861,0-.621-.057-1.241-.057-1.807.45.452,1.016.961,1.692,1.638q1.016.931,3.047,2.707l7.728,6.712h42.249Z" transform="translate(-385.2)" fill="#00a2ff"/>
    <g id="Group_1" data-name="Group 1" transform="translate(88.785 429.09)">
      <path id="Path_4" data-name="Path 4" d="M90.646,571.917h3.441a1.789,1.789,0,0,1,1.3.508,1.691,1.691,0,0,1,.563,1.185v.055h-1.58v-.055a.3.3,0,0,0-.113-.227.428.428,0,0,0-.281-.112H90.929c-.113,0-.169.056-.283.112a.43.43,0,0,0-.113.282.293.293,0,0,0,.113.227.429.429,0,0,0,.283.112h3.383a2.014,2.014,0,0,1,1.353.508,1.645,1.645,0,0,1,0,2.481,2.019,2.019,0,0,1-1.353.508H90.76a2.02,2.02,0,0,1-1.354-.508,1.523,1.523,0,0,1-.564-1.241V575.7h1.523v.057a.433.433,0,0,0,.112.283c.112.056.169.112.283.112h3.384a.809.809,0,0,0,.338-.112c.113-.057.113-.17.113-.283a.431.431,0,0,0-.113-.283c-.057-.112-.169-.112-.281-.112H90.646a1.783,1.783,0,0,1-1.3-.508,1.685,1.685,0,0,1-.564-1.185,1.629,1.629,0,0,1,.507-1.185,2.419,2.419,0,0,1,1.354-.564" transform="translate(-88.785 -571.861)" fill="#666"/>
      <path id="Path_5" data-name="Path 5" d="M190.613,571.722a2.008,2.008,0,0,1,1.3.451,1.628,1.628,0,0,1,.508,1.185v2.256a1.626,1.626,0,0,1-.508,1.184,1.746,1.746,0,0,1-1.3.451h-4.231a1.882,1.882,0,0,1-1.3-.508,1.625,1.625,0,0,1-.507-1.185V573.3a1.627,1.627,0,0,1,.507-1.185,1.789,1.789,0,0,1,1.3-.507Zm-4.231,1.466a.508.508,0,0,0-.17.394v1.749a.511.511,0,0,0,.17.4.642.642,0,0,0,.451.169h3.328a.642.642,0,0,0,.451-.169.517.517,0,0,0,.169-.4v-1.749a.514.514,0,0,0-.169-.394.64.64,0,0,0-.451-.169h-3.328a.746.746,0,0,0-.451.169" transform="translate(-167.147 -571.609)" fill="#666"/>
      <path id="Path_6" data-name="Path 6" d="M289.81,572.229v1.353h-5.021v.9h4.344v1.3h-4.344v1.974h-1.636v-5.528Z" transform="translate(-247.786 -572.116)" fill="#666"/>
      <path id="Path_7" data-name="Path 7" d="M381.149,572.229v1.353h-2.764v4.175h-1.636v-4.175h-2.764v-1.353Z" transform="translate(-322.09 -572.116)" fill="#666"/>
      <path id="Path_8" data-name="Path 8" d="M467.294,572.229l1.523,3.5,1.523-3.44h1.579l1.523,3.44,1.523-3.5h1.748l-2.481,5.528h-1.581l-1.578-3.441-1.579,3.441h-1.58l-2.482-5.528Z" transform="translate(-396.897 -572.116)" fill="#666"/>
      <path id="Path_9" data-name="Path 9" d="M585.464,572.229l3.5,5.528h-1.748l-.733-1.185h-3.554l-.734,1.185h-1.747l3.5-5.528Zm-1.748,3.046h1.918l-.959-1.523Z" transform="translate(-490.983 -572.116)" fill="#666"/>
      <path id="Path_10" data-name="Path 10" d="M686.552,571.974a2.063,2.063,0,0,1,1.411.507,1.6,1.6,0,0,1,.564,1.242,1.678,1.678,0,0,1-.451,1.127,2.031,2.031,0,0,1-1.128.62l1.748,1.975h-1.917l-1.635-1.975h-2.315v1.975h-1.635v-5.529Zm-3.723,2.257h3.612a.477.477,0,0,0,.338-.114c.112-.056.112-.168.112-.337a.816.816,0,0,0-.112-.339.605.605,0,0,0-.338-.113h-3.612Z" transform="translate(-573.399 -571.861)" fill="#666"/>
      <path id="Path_11" data-name="Path 11" d="M784.174,572.229v1.353h-5.189v.733h4.456v1.3h-4.512v.79h5.19v1.353h-6.825v-5.528Z" transform="translate(-652.012 -572.116)" fill="#666"/>
      <path id="Path_12" data-name="Path 12" d="M872.405,572.229h3.441a1.785,1.785,0,0,1,1.3.507,1.688,1.688,0,0,1,.564,1.185v.057h-1.579v-.057a.292.292,0,0,0-.114-.225.427.427,0,0,0-.282-.113h-3.047c-.113,0-.169.056-.281.113a.434.434,0,0,0-.113.225.3.3,0,0,0,.113.227.428.428,0,0,0,.281.112h3.385a2.019,2.019,0,0,1,1.354.508,1.646,1.646,0,0,1,0,2.481,2.024,2.024,0,0,1-1.354.508h-3.554a2.022,2.022,0,0,1-1.354-.508,1.524,1.524,0,0,1-.564-1.241h1.523v.056a.431.431,0,0,0,.114.283c.113.056.169.112.282.112H875.9a.8.8,0,0,0,.338-.112.41.41,0,0,0,0-.565c-.055-.113-.169-.113-.282-.113h-3.441a1.787,1.787,0,0,1-1.3-.507,1.689,1.689,0,0,1-.563-1.184,1.624,1.624,0,0,1,.507-1.185,1.451,1.451,0,0,1,1.241-.564" transform="translate(-728.341 -572.116)" fill="#666"/>
    </g>
  </g>
</svg>
