<svg xmlns="http://www.w3.org/2000/svg" width="110.129" height="110.131" viewBox="0 0 110.129 110.131">
  <g id="postman" transform="translate(0.002 0.003)">
    <path id="Path_87260" data-name="Path 87260" d="M98.644,21.408a55.063,55.063,0,1,0-9.913,77.226,55.063,55.063,0,0,0,9.913-77.226Z" transform="translate(0)" fill="#ff6c37"/>
    <path id="Path_87261" data-name="Path 87261" d="M55.266,21.476l-23.218,23.4-6.561-6.745c22.851-22.851,25.145-20.786,29.78-16.656Z" transform="translate(18.37 13.608)" fill="#fff"/>
    <path id="Path_87262" data-name="Path 87262" d="M32.4,45.866a.826.826,0,0,1-.551-.229L25.237,39.03a.826.826,0,0,1,0-1.148c22.529-22.529,25.6-21.474,30.926-16.656a.735.735,0,0,1,.275.6.646.646,0,0,1-.229.6L32.992,45.639a.871.871,0,0,1-.6.229ZM26.98,38.479,32.4,43.894,54.42,21.869a4.956,4.956,0,0,0-6.516-1.1C43.912,22.557,37.489,28.017,26.98,38.479Z" transform="translate(18.023 13.26)" fill="#ff6c37"/>
    <path id="Path_87263" data-name="Path 87263" d="M35.819,50.068,29.487,43.6,52.7,20.654c6.241,6.1-3.028,16.29-16.885,29.412Z" transform="translate(21.253 14.888)" fill="#fff"/>
    <path id="Path_87264" data-name="Path 87264" d="M36.138,51.357a.964.964,0,0,1-.551-.229L29.117,44.8a.964.964,0,0,1,0-.735.89.89,0,0,1,0-.6L52.335,20.247a.871.871,0,0,1,1.192,0,7.117,7.117,0,0,1,2.294,5.46c0,6.195-7.067,13.995-19.088,25.375a.964.964,0,0,1-.6.275ZM31,44.062l5.185,5.183c9.177-8.672,17.942-17.62,17.987-23.677a5.231,5.231,0,0,0-1.192-3.533Z" transform="translate(20.934 14.424)" fill="#ff6c37"/>
    <path id="Path_87265" data-name="Path 87265" d="M28.191,30.186l4.589,4.589a.275.275,0,0,1,0,.413L23.1,37.253a.917.917,0,0,1-.826-1.561l5.644-5.6a.454.454,0,0,1,.275.091Z" transform="translate(15.848 21.692)" fill="#fff"/>
    <path id="Path_87266" data-name="Path 87266" d="M23.219,38.5a1.79,1.79,0,0,1-1.514-.872,1.745,1.745,0,0,1,.322-2.065l5.6-5.644a1.1,1.1,0,0,1,1.468,0l4.589,4.589a1.012,1.012,0,0,1,.275,1.01,1.064,1.064,0,0,1-.779.735l-9.682,2.065Zm5.14-6.974L23.175,36.71l8.581-1.836ZM28.772,31.113Z" transform="translate(15.498 21.363)" fill="#ff6c37"/>
    <path id="Path_87267" data-name="Path 87267" d="M56.285,13.939A8.9,8.9,0,1,0,54.68,27.98l-6.241-6.241Z" transform="translate(29.695 8.25)" fill="#fff"/>
    <path id="Path_87268" data-name="Path 87268" d="M50.388,30.4a9.737,9.737,0,0,1-6.807-16.564,9.825,9.825,0,0,1,13.766,0,.779.779,0,0,1,.275.6.792.792,0,0,1-.275.6l-7.433,7.021L55.557,27.6a.774.774,0,0,1,.229.688.826.826,0,0,1-.367.6A9.98,9.98,0,0,1,50.372,30.4Zm0-17.8A8.063,8.063,0,1,0,53.6,28.056l-5.415-5.415a.735.735,0,0,1,0-1.148l7.158-7.2a8.234,8.234,0,0,0-4.956-1.7Z" transform="translate(29.397 7.943)" fill="#ff6c37"/>
    <path id="Path_87269" data-name="Path 87269" d="M53.333,12.974l-7.846,7.8,6.241,6.241a9.5,9.5,0,0,0,1.743-1.285,9.177,9.177,0,0,0-.138-12.756Z" transform="translate(32.784 9.353)" fill="#fff"/>
    <path id="Path_87270" data-name="Path 87270" d="M51.993,28.089a.688.688,0,0,1-.551-.229L45.2,21.619a.735.735,0,0,1,0-1.148L53,12.809a.826.826,0,0,1,1.377,0,9.636,9.636,0,0,1,0,13.766,8.4,8.4,0,0,1-1.836,1.468.74.74,0,0,1-.551.046Zm-5.047-7.065,5.185,5.185a8.811,8.811,0,0,0,1.01-.826,8.122,8.122,0,0,0,2.387-5.735,7.881,7.881,0,0,0-1.974-5.231Z" transform="translate(32.38 8.967)" fill="#ff6c37"/>
    <path id="Path_87271" data-name="Path 87271" d="M53.981,21.329a3.352,3.352,0,0,0-4.589,0L28.607,42.067l3.441,3.488L54.027,26.282a3.4,3.4,0,0,0-.046-4.956Z" transform="translate(20.619 14.719)" fill="#fff"/>
    <path id="Path_87272" data-name="Path 87272" d="M32.289,46.731a.826.826,0,0,1-.551-.229L28.25,43.014a.826.826,0,0,1,0-1.148L49.036,21.171a4.223,4.223,0,0,1,7.2,3.12,4.319,4.319,0,0,1-1.423,3.028L32.839,46.591a.783.783,0,0,1-.551.138Zm-2.431-4.316,2.294,2.34L53.717,25.988a2.534,2.534,0,0,0,.872-1.836,2.464,2.464,0,0,0-.779-1.881,2.569,2.569,0,0,0-3.626,0Z" transform="translate(20.194 14.37)" fill="#ff6c37"/>
    <path id="Path_87273" data-name="Path 87273" d="M22.284,55.191a.465.465,0,0,0,0,.551l.917,3.992a1.184,1.184,0,0,1-.571,1.2,1.118,1.118,0,0,1-1.311-.132l-6.286-6.057L34.627,35h6.792l4.589,4.589a104.172,104.172,0,0,1-23.723,15.6Z" transform="translate(10.836 25.227)" fill="#fff"/>
    <path id="Path_87274" data-name="Path 87274" d="M22.217,62.3a1.938,1.938,0,0,1-1.377-.6l-6.01-6.01a.735.735,0,0,1,0-1.148L34.559,34.77a.774.774,0,0,1,.413-.229h6.836a.826.826,0,0,1,.551,0l4.589,4.589a.886.886,0,0,1-.046,1.239l-.367.322A112.414,112.414,0,0,1,23,55.786l.872,3.717a1.979,1.979,0,0,1-1.881,2.431Zm-5.6-7.2,5.413,5.46a.244.244,0,1,0,.367-.322l-.917-3.992a1.28,1.28,0,0,1,.688-1.468A112.809,112.809,0,0,0,45.112,40l-3.763-3.763H35.2ZM23.227,55.922Z" transform="translate(10.49 24.862)" fill="#ff6c37"/>
    <path id="Path_87275" data-name="Path 87275" d="M12.468,51.136l4.589-4.589,7.067,7.067-11.241-.779a.919.919,0,0,1-.413-1.7Z" transform="translate(8.675 33.549)" fill="#fff"/>
    <path id="Path_87276" data-name="Path 87276" d="M24.492,54.63l-11.2-.779a1.772,1.772,0,0,1-1.469-1.124,1.754,1.754,0,0,1,.368-1.814l4.589-4.589a.826.826,0,0,1,1.148,0l7.02,7.02a.778.778,0,0,1,0,.917.872.872,0,0,1-.459.367Zm-11.2-2.569,9.177.6-5.047-4.727Z" transform="translate(8.444 33.221)" fill="#ff6c37"/>
    <path id="Path_87277" data-name="Path 87277" d="M34.622,36.955l-9.269,1.423,5.369-5.322Z" transform="translate(18.273 23.826)" fill="#fff"/>
    <path id="Path_87278" data-name="Path 87278" d="M25.724,39.578a.785.785,0,0,1-.735-.459.774.774,0,0,1,0-.917l5.322-5.369a.871.871,0,0,1,1.192,0l3.9,3.9a.774.774,0,0,1,0,.826.809.809,0,0,1-.642.6l-9.177,1.423Zm5.369-5L28.11,37.558l5.14-.779Z" transform="translate(17.903 23.495)" fill="#ff6c37"/>
    <path id="Path_87279" data-name="Path 87279" d="M33.872,36.954l-6.47.826a.826.826,0,0,1-.779-1.377l3.35-3.35Z" transform="translate(19.023 23.824)" fill="#fff"/>
    <path id="Path_87280" data-name="Path 87280" d="M27.575,51.055a1.7,1.7,0,0,1-1.468-.872,1.652,1.652,0,0,1,.275-1.974l3.35-3.35a.871.871,0,0,1,1.192,0l3.9,3.9a.826.826,0,0,1-.5,1.423l-6.423.826Zm0-1.7,4.864-.6L30.284,46.6l-2.753,2.753ZM67.5,16.182a.688.688,0,0,0-.872-.275.637.637,0,0,0-.32.379.649.649,0,0,0,.045.494,1.974,1.974,0,0,1-.229,2.065.582.582,0,0,0-.172.435.654.654,0,0,0,.172.435.5.5,0,0,0,.367,0,.6.6,0,0,0,.6-.184,3.166,3.166,0,0,0,.413-3.35Z" transform="translate(18.666 11.422)" fill="#ff6c37"/>
  </g>
</svg>
