<svg xmlns="http://www.w3.org/2000/svg" xmlns:xlink="http://www.w3.org/1999/xlink" width="100.315" height="40.053" viewBox="0 0 100.315 40.053">
  <defs>
    <linearGradient id="linear-gradient" x1="-2.006" y1="2.031" x2="-2.006" y2="2.013" gradientUnits="objectBoundingBox">
      <stop offset="0" stop-color="#0994dc"/>
      <stop offset="0.35" stop-color="#66cef5"/>
      <stop offset="0.846" stop-color="#127bca"/>
      <stop offset="1" stop-color="#127bca"/>
    </linearGradient>
    <linearGradient id="linear-gradient-2" x1="-1.984" y1="2.013" x2="-1.984" y2="1.995" gradientUnits="objectBoundingBox">
      <stop offset="0" stop-color="#0e76bc"/>
      <stop offset="0.36" stop-color="#36aee8"/>
      <stop offset="0.846" stop-color="#00adef"/>
      <stop offset="1" stop-color="#00adef"/>
    </linearGradient>
    <linearGradient id="linear-gradient-3" x1="-2.656" y1="2.121" x2="-2.656" y2="2.135" gradientUnits="objectBoundingBox">
      <stop offset="0" stop-color="#1c63b7"/>
      <stop offset="0.5" stop-color="#33bdf2"/>
      <stop offset="1" stop-color="#33bdf2" stop-opacity="0.42"/>
    </linearGradient>
    <linearGradient id="linear-gradient-4" x1="-2.546" y1="2.079" x2="-2.546" y2="2.062" gradientUnits="objectBoundingBox">
      <stop offset="0" stop-color="#166ab8"/>
      <stop offset="0.4" stop-color="#36aee8"/>
      <stop offset="0.846" stop-color="#0798dd"/>
      <stop offset="1" stop-color="#0798dd"/>
    </linearGradient>
    <linearGradient id="linear-gradient-5" x1="-1.683" y1="1.936" x2="-1.683" y2="1.92" gradientUnits="objectBoundingBox">
      <stop offset="0" stop-color="#124379"/>
      <stop offset="0.39" stop-color="#1487cb"/>
      <stop offset="0.78" stop-color="#165197"/>
      <stop offset="1" stop-color="#165197"/>
    </linearGradient>
    <linearGradient id="linear-gradient-6" x1="-3.685" y1="5.401" x2="-3.634" y2="5.401" gradientUnits="objectBoundingBox">
      <stop offset="0" stop-color="#33bdf2" stop-opacity="0.698"/>
      <stop offset="1" stop-color="#1dacd8"/>
    </linearGradient>
    <linearGradient id="linear-gradient-7" x1="-2.251" y1="1.839" x2="-2.251" y2="1.849" gradientUnits="objectBoundingBox">
      <stop offset="0" stop-color="#136ab4"/>
      <stop offset="0.6" stop-color="#59caf5" stop-opacity="0.549"/>
      <stop offset="1" stop-color="#59caf5" stop-opacity="0.235"/>
    </linearGradient>
    <linearGradient id="linear-gradient-8" x1="-0.064" y1="1.815" x2="-0.05" y2="1.815" gradientUnits="objectBoundingBox">
      <stop offset="0" stop-color="#05a1e6" stop-opacity="0.247"/>
      <stop offset="1" stop-color="#05a1e6"/>
    </linearGradient>
    <linearGradient id="linear-gradient-9" x1="-0.393" y1="2.399" x2="-0.393" y2="2.417" gradientUnits="objectBoundingBox">
      <stop offset="0" stop-color="#318ed5"/>
      <stop offset="1" stop-color="#38a7e4"/>
    </linearGradient>
    <linearGradient id="linear-gradient-10" x1="-0.596" y1="2.391" x2="-0.596" y2="2.421" gradientUnits="objectBoundingBox">
      <stop offset="0" stop-color="#05a1e6"/>
      <stop offset="1" stop-color="#05a1e6" stop-opacity="0.549"/>
    </linearGradient>
    <linearGradient id="linear-gradient-11" x1="-0.55" y1="1.989" x2="-0.55" y2="2.001" gradientUnits="objectBoundingBox">
      <stop offset="0" stop-color="#1959a6"/>
      <stop offset="0.5" stop-color="#05a1e6"/>
      <stop offset="0.918" stop-color="#7ec5ea"/>
      <stop offset="1" stop-color="#7ec5ea"/>
    </linearGradient>
    <linearGradient id="linear-gradient-12" x1="-0.205" y1="1.811" x2="-0.208" y2="1.82" gradientUnits="objectBoundingBox">
      <stop offset="0" stop-color="#165096"/>
      <stop offset="1" stop-color="#0d82ca"/>
    </linearGradient>
    <linearGradient id="linear-gradient-13" x1="-5.59" y1="3.13" x2="-5.59" y2="3.144" gradientUnits="objectBoundingBox">
      <stop offset="0" stop-color="#05a1e6"/>
      <stop offset="0.874" stop-color="#0495d6"/>
      <stop offset="1" stop-color="#0495d6"/>
    </linearGradient>
    <linearGradient id="linear-gradient-14" x1="-3.036" y1="1.896" x2="-3.041" y2="1.885" gradientUnits="objectBoundingBox">
      <stop offset="0" stop-color="#38a7e4" stop-opacity="0.329"/>
      <stop offset="0.961" stop-color="#0e88d3"/>
      <stop offset="1" stop-color="#0e88d3"/>
    </linearGradient>
    <linearGradient id="linear-gradient-15" x1="-2.431" y1="1.86" x2="-2.431" y2="1.85" gradientUnits="objectBoundingBox">
      <stop offset="0" stop-color="#168cd4"/>
      <stop offset="0.5" stop-color="#1c87cc"/>
      <stop offset="1" stop-color="#154b8d"/>
    </linearGradient>
    <linearGradient id="linear-gradient-16" x1="-2.252" y1="46.973" x2="-2.23" y2="47.505" gradientUnits="objectBoundingBox">
      <stop offset="0" stop-color="#97d6ee"/>
      <stop offset="0.703" stop-color="#55c1ea"/>
      <stop offset="1" stop-color="#55c1ea"/>
    </linearGradient>
    <linearGradient id="linear-gradient-17" x1="-3.387" y1="25.714" x2="-3.361" y2="25.567" gradientUnits="objectBoundingBox">
      <stop offset="0" stop-color="#7accec"/>
      <stop offset="1" stop-color="#3fb7ed"/>
    </linearGradient>
    <linearGradient id="linear-gradient-18" x1="-3.19" y1="2.26" x2="-3.19" y2="2.245" gradientUnits="objectBoundingBox">
      <stop offset="0" stop-color="#1da7e7"/>
      <stop offset="1" stop-color="#37abe7" stop-opacity="0"/>
    </linearGradient>
  </defs>
  <g id="asp-dont-net-mvc" transform="translate(-10 -157.6)">
    <path id="Path_86877" data-name="Path 86877" d="M180.9,192.985c3.61,11.053,4.976,30.794,15.56,30.794h0a14.139,14.139,0,0,0,2.427-.224h0c-9.605-2.243-10.747-21.76-16.621-31.854h0c-.449.408-.918.836-1.366,1.285" transform="translate(-136.048 -27.146)" fill="url(#linear-gradient)"/>
    <path id="Path_86878" data-name="Path 86878" d="M187.6,187.46c5.873,10.095,6.995,29.611,16.621,31.854h0a15.537,15.537,0,0,0,2.264-.612h0c-8.626-4.221-11.012-23.167-17.681-32.3h0c-.387.347-.8.693-1.2,1.06" transform="translate(-141.381 -22.927)" fill="url(#linear-gradient-2)"/>
    <path id="Path_86879" data-name="Path 86879" d="M194.232,162.2a14.14,14.14,0,0,0-2.427.224,18.945,18.945,0,0,0-6.506,2.712,18.653,18.653,0,0,1,1.713,2,23.06,23.06,0,0,1,6.648-4.038,16.194,16.194,0,0,1,2.488-.693,8.624,8.624,0,0,0-1.917-.2" transform="translate(-139.55 -3.662)" fill="#14559a"/>
    <path id="Path_86880" data-name="Path 86880" d="M253.6,195.543a33.79,33.79,0,0,0,2.651-2.325c-3.671-11.012-5-31.018-15.642-31.018a12.732,12.732,0,0,0-2.3.2c9.707,2.427,10.951,23.534,15.3,33.139" transform="translate(-181.742 -3.662)" fill="url(#linear-gradient-3)"/>
    <path id="Path_86881" data-name="Path 86881" d="M230.9,162.424a8.057,8.057,0,0,0-1.9-.224l4.181.02a11.059,11.059,0,0,0-2.284.2" transform="translate(-174.339 -3.662)" fill="#3092c4"/>
    <path id="Path_86882" data-name="Path 86882" d="M286.846,332.105a14.953,14.953,0,0,1-1.2-1.305,22.394,22.394,0,0,1-5.343,2.855,8.241,8.241,0,0,0,2,.673,9.163,9.163,0,0,0,1.693.163,11.187,11.187,0,0,0,4.894-.877,8.947,8.947,0,0,1-2.039-1.509" transform="translate(-215.177 -137.879)" fill="#1969bc"/>
    <path id="Path_86883" data-name="Path 86883" d="M226.2,163.993c8.688,4.548,9.442,25.125,16.376,33.466h0c.469-.326.918-.673,1.387-1.04h0c-4.344-9.605-5.588-30.712-15.275-33.119h0a13.7,13.7,0,0,0-2.488.693" transform="translate(-172.11 -4.538)" fill="url(#linear-gradient-4)"/>
    <path id="Path_86884" data-name="Path 86884" d="M193.6,170.817c6.669,9.116,9.055,28.061,17.681,32.3h0a22.394,22.394,0,0,0,5.343-2.855h0c-6.934-8.361-7.688-28.938-16.376-33.466h0a22.523,22.523,0,0,0-6.648,4.017" transform="translate(-146.158 -7.324)" fill="url(#linear-gradient-5)"/>
    <path id="Path_86885" data-name="Path 86885" d="M146.706,186.272c-1.04,2.366-2.1,5.465-3.406,9.524a69.8,69.8,0,0,1,7.668-9.238c-.347-1.081-.734-2.06-1.122-2.957a30.8,30.8,0,0,0-3.141,2.672" transform="translate(-106.116 -20.698)" fill="url(#linear-gradient-6)"/>
    <path id="Path_86886" data-name="Path 86886" d="M176.318,180.2l-.918.673a25.728,25.728,0,0,1,1.122,2.957c.469-.449.918-.9,1.387-1.305a20.188,20.188,0,0,0-1.591-2.325" transform="translate(-131.669 -17.991)" fill="#2b74b1"/>
    <path id="Path_86887" data-name="Path 86887" d="M180.9,176.6q-.551.336-1.1.734a20.193,20.193,0,0,1,1.591,2.325c.408-.367.816-.714,1.224-1.06a14.94,14.94,0,0,0-1.713-2" transform="translate(-135.172 -15.125)" fill="#125a9e"/>
    <path id="Path_86888" data-name="Path 86888" d="M374.7,158c-4.915,18.945-15.173,34.159-23.779,38.013h-.02c-.163.061-.306.143-.469.2a.075.075,0,0,1-.061.02.29.29,0,0,1-.122.041.075.075,0,0,1-.061.02.991.991,0,0,0-.224.082c-.041.02-.061.02-.082.041-.041.02-.061.02-.1.041s-.061.02-.1.041-.061.02-.1.041l-.184.061c-.02,0-.041.02-.082.02-.041.02-.082.02-.122.041a.123.123,0,0,1-.082.02c-.041.02-.1.02-.143.041-.061.02-.1.02-.163.041a3.518,3.518,0,0,0,1.224.224c8.157,0,16.376-14.622,30-38.931L374.7,158Z" transform="translate(-269.707 -0.319)" fill="url(#linear-gradient-7)"/>
    <path id="Path_86889" data-name="Path 86889" d="M35.41,162.875h0a.063.063,0,0,1,.041-.02h.02a.29.29,0,0,1,.122-.041c.02,0,.02,0,.02-.02.02,0,.02-.02.041-.02a.378.378,0,0,1,.143-.041h0a1.8,1.8,0,0,1,.306-.1c.02,0,.02-.02.041-.02a1.3,1.3,0,0,1,.143-.041.075.075,0,0,1,.061-.02c.041-.02.1-.02.143-.041.02,0,.041-.02.061-.02.143-.041.306-.082.449-.122.02,0,.041-.02.061-.02a.259.259,0,0,1,.122-.02.075.075,0,0,1,.061-.02.259.259,0,0,1,.122-.02h.041a1.193,1.193,0,0,1,.265-.041h.061a.259.259,0,0,1,.122-.02c.02,0,.041-.02.061-.02.041,0,.082-.02.122-.02a.075.075,0,0,0,.061-.02,1.347,1.347,0,0,1,.286-.02c-.286-.02-.571-.041-.877-.041-9.157,0-21.8,17.049-27.511,39.135h1.1q2.723-4.894,4.956-9.218c4-15.642,12.134-26.307,19.353-29.142" transform="translate(0 -3.582)" fill="url(#linear-gradient-8)"/>
    <path id="Path_86890" data-name="Path 86890" d="M160,180.54a40.123,40.123,0,0,1,3.12-2.692c-.245-.51-.489-1-.755-1.448A19.356,19.356,0,0,0,160,180.54" transform="translate(-119.41 -14.966)" fill="#0d82ca"/>
    <path id="Path_86891" data-name="Path 86891" d="M163.222,166.361a8.3,8.3,0,0,1,1.631,2.019c.163-.184.306-.367.469-.53a9.092,9.092,0,0,0-2.223-1.55.671.671,0,0,1,.122.061h0" transform="translate(-121.878 -6.926)" fill="#0d82ca"/>
    <path id="Path_86892" data-name="Path 86892" d="M39.7,195.022c8.382-16.152,12.338-26.369,19.353-29.122h0C51.834,168.735,43.7,179.4,39.7,195.022" transform="translate(-23.643 -6.607)" fill="url(#linear-gradient-9)"/>
    <path id="Path_86893" data-name="Path 86893" d="M172.169,173.9a5.806,5.806,0,0,0-.469.53,15.931,15.931,0,0,1,.755,1.448q.459-.367.918-.673a12.5,12.5,0,0,0-1.2-1.305" transform="translate(-128.724 -12.976)" fill="#127bca"/>
    <path id="Path_86894" data-name="Path 86894" d="M55.853,265.794h0a.4.4,0,0,1-.143.02h-.02c-.041,0-.082.02-.122.02h-.02a1.542,1.542,0,0,1-.306.02H55.2c8.484-.245,12.358-4.487,14.275-10.645,1.468-4.67,2.672-8.606,3.712-11.91A167.975,167.975,0,0,0,62.48,260.94a8.848,8.848,0,0,1-6.628,4.854" transform="translate(-35.982 -68.223)" fill="url(#linear-gradient-10)"/>
    <path id="Path_86895" data-name="Path 86895" d="M58.4,228.618h0a8.722,8.722,0,0,0,6.607-4.854h0a170.119,170.119,0,0,1,10.707-17.64h0A98.951,98.951,0,0,1,79.12,196.6h0c-7.076,6.75-14.173,17.946-20.72,32.018" transform="translate(-38.53 -31.047)" fill="url(#linear-gradient-11)"/>
    <path id="Path_86896" data-name="Path 86896" d="M20.356,308.7q-2.233,4.344-4.956,9.238h3.2a77.31,77.31,0,0,1,1.754-9.238" transform="translate(-4.299 -120.286)" fill="#05a1e6"/>
    <path id="Path_86897" data-name="Path 86897" d="M55,162.341c-.02,0-.041.02-.061.02h0a.259.259,0,0,1-.122.02h0a.075.075,0,0,0-.061.02h0a.259.259,0,0,1-.122.02h0a.075.075,0,0,0-.061.02h0a1.4,1.4,0,0,1-.265.041h-.041a.259.259,0,0,1-.122.02h0a.075.075,0,0,1-.061.02h0a.259.259,0,0,1-.122.02h0a.075.075,0,0,1-.061.02h0c-.143.041-.306.082-.449.122h0c-.02,0-.041.02-.061.02h0a1.293,1.293,0,0,1-.143.041h0a.075.075,0,0,1-.061.02h0a1.3,1.3,0,0,1-.143.041h0a.071.071,0,0,0-.041.02h0a1.8,1.8,0,0,1-.306.1h0a.378.378,0,0,1-.143.041h0a.075.075,0,0,1-.061.02h0a.29.29,0,0,1-.122.041h0a.063.063,0,0,1-.041.02h0c-7.015,2.773-10.972,12.991-19.353,29.122h0a82.034,82.034,0,0,0-1.774,9.218h.449c1.264,0,1.611-.02,3.079-.02h1.387a1.544,1.544,0,0,1,.306-.02h.02c.041,0,.082-.02.122-.02h.02c.041,0,.1-.02.143-.02h0c6.546-14.071,13.643-25.267,20.72-32h0a17.865,17.865,0,0,1,2.386-4.119h0a7.211,7.211,0,0,0-1.631-2.019h0a.02.02,0,0,1-.02-.02h0c-.041-.02-.061-.041-.1-.041h0c-.041-.02-.061-.041-.1-.041h0c-.041-.02-.061-.02-.1-.041h0a.29.29,0,0,0-.122-.041h0c-.041-.02-.061-.02-.082-.041h0a.725.725,0,0,1-.184-.082h0a.123.123,0,0,0-.082-.02h0c-.041-.02-.1-.041-.143-.061h0c-.02-.02-.041-.02-.082-.02h0L57,162.708h-.02c-.082-.02-.143-.041-.224-.061h0a.063.063,0,0,0-.041-.02h0l-.184-.061h0a.071.071,0,0,1-.041-.02h0a3.169,3.169,0,0,0-.469-.1h0a.071.071,0,0,1-.041-.02h0c-.061-.02-.143-.02-.2-.041h0c-.02-.02-.02-.02-.041-.02h0c-.082-.02-.163-.02-.245-.041h-.041a.564.564,0,0,0-.184-.02h0a.52.52,0,0,1-.265.041" transform="translate(-16.877 -3.742)" fill="url(#linear-gradient-12)"/>
    <path id="Path_86898" data-name="Path 86898" d="M365.858,171.846c-1.611,5.16-2.916,9.422-4.058,12.929h0A139.326,139.326,0,0,0,374.729,162.2h0c-4.833,1.509-7.423,4.976-8.871,9.646" transform="translate(-280.056 -3.662)" fill="url(#linear-gradient-13)"/>
    <path id="Path_86899" data-name="Path 86899" d="M359.873,195.687c-.224.122-.449.224-.673.326,8.606-3.834,18.864-19.047,23.779-38.013h-1c-11.278,20.169-14.908,33.669-22.106,37.687" transform="translate(-277.986 -0.319)" fill="url(#linear-gradient-14)"/>
    <path id="Path_86900" data-name="Path 86900" d="M328.074,285.462c1.876-2.284,3.406-6.159,5.486-12.562a61.883,61.883,0,0,1-7.24,8.443c0,.02,0,.02-.02.02a21.49,21.49,0,0,0,1.774,4.1" transform="translate(-251.796 -91.787)" fill="#079ae1"/>
    <path id="Path_86901" data-name="Path 86901" d="M324.97,334.5a7.764,7.764,0,0,1-2.06,1.815,4.008,4.008,0,0,1-.51.265,7.379,7.379,0,0,0,2.631.836h0c.143.02.286.02.428.041h.02a.694.694,0,0,1,.2.02h.673a.123.123,0,0,0,.082-.02.507.507,0,0,0,.163-.02h.082c.061,0,.1-.02.163-.02h.02c.02,0,.041-.02.061-.02a.565.565,0,0,1,.184-.02h.061c.061-.02.143-.02.2-.041h.041c.143-.02.265-.061.408-.082a5.857,5.857,0,0,1-2.835-2.733" transform="translate(-248.691 -140.824)" fill="#1969bc"/>
    <path id="Path_86902" data-name="Path 86902" d="M257.2,345.657a12.4,12.4,0,0,0,2.427-.245,15.544,15.544,0,0,0,2.264-.612,8.239,8.239,0,0,0,2,.673,9.163,9.163,0,0,0,1.693.163H257.2Z" transform="translate(-196.788 -149.024)" fill="#1e5cb3"/>
    <path id="Path_86903" data-name="Path 86903" d="M298.4,345.577a11.245,11.245,0,0,0,4.894-.877,7.38,7.38,0,0,0,2.631.836h0c.143.02.285.02.428.041h.02a.694.694,0,0,1,.2.02h.224l-8.4-.02Z" transform="translate(-229.586 -148.944)" fill="#1e5cb3"/>
    <path id="Path_86904" data-name="Path 86904" d="M339.7,348.045h.449a.123.123,0,0,0,.082-.02.506.506,0,0,0,.163-.02h.082c.061,0,.1-.02.163-.02h.02a.071.071,0,0,0,.041-.02.564.564,0,0,1,.184-.02.075.075,0,0,0,.061-.02c.061-.02.143-.02.2-.041h.041c.143-.02.265-.061.408-.082h0a3.518,3.518,0,0,0,1.224.224l-3.12.02Z" transform="translate(-262.463 -151.412)" fill="#1d60b5"/>
    <path id="Path_86905" data-name="Path 86905" d="M310.538,314.4h0c-.877.836-1.774,1.611-2.651,2.3-.469.367-.918.714-1.387,1.04a14.722,14.722,0,0,0,1.2,1.305,9.7,9.7,0,0,0,2.039,1.53c.163-.082.326-.163.489-.265a7.765,7.765,0,0,0,2.06-1.815,22.9,22.9,0,0,1-1.754-4.1" transform="translate(-236.034 -124.823)" fill="#175fab"/>
    <path id="Path_86906" data-name="Path 86906" d="M359.494,157.681h-5.017c-.265.02-.53.02-.8.041h0l-.367.8h0a139.327,139.327,0,0,1-12.929,22.575h0c-2.08,6.4-3.61,10.278-5.486,12.562h0a5.857,5.857,0,0,0,2.835,2.733h0a.154.154,0,0,1,.082-.02h.02c.02,0,.041-.02.061-.02h0c.041-.02.1-.02.143-.041h0a.123.123,0,0,1,.082-.02h0c.041-.02.082-.02.122-.041h0a.123.123,0,0,1,.082-.02h0l.184-.061h0c.02-.02.061-.02.1-.041h0c.041-.02.061-.02.1-.041h0c.041-.02.082-.02.1-.041h0c.02-.02.061-.02.082-.041h0a1,1,0,0,0,.224-.082h0c.02,0,.041-.02.061-.02h0l.122-.061h0a.075.075,0,0,1,.061-.02h0c.143-.061.306-.122.469-.2h.02c.224-.1.449-.2.673-.326h0c7.2-4.018,10.829-17.518,22.106-37.687h0l-3.141.082Z" transform="translate(-258.642)" fill="url(#linear-gradient-15)"/>
    <path id="Path_86907" data-name="Path 86907" d="M149.3,162.387a.075.075,0,0,1,.061.02.259.259,0,0,1,.122.02h.041c.082.02.163.02.245.041.02,0,.02,0,.041.02.061.02.143.02.2.041a.071.071,0,0,1,.041.02c.163.041.306.061.469.1.02,0,.02.02.041.02l.184.061c.02,0,.041.02.061.02.082.02.143.041.224.061l.02.02.184.061c.02.02.041.02.082.02.041.02.1.041.143.061.02,0,.061.02.082.02.061.02.122.061.184.082.041.02.061.02.082.041a.345.345,0,0,0,.1.041c.041.02.061.041.1.041.041.02.061.041.1.041a9.495,9.495,0,0,1,2.223,1.55,5.245,5.245,0,0,1,.8-.714,8.637,8.637,0,0,0-5.139-1.652,2.593,2.593,0,0,0-.693-.041" transform="translate(-110.892 -3.808)" fill="#7dcbec"/>
    <path id="Path_86908" data-name="Path 86908" d="M174,171.034a14.624,14.624,0,0,1,1.2,1.285q.551-.4,1.1-.734A12.883,12.883,0,0,0,174.8,170.3a6.79,6.79,0,0,0-.8.734" transform="translate(-130.555 -10.11)" fill="#5ec5ed"/>
    <path id="Path_86909" data-name="Path 86909" d="M145.877,162.241c.224-.02.449-.02.673-.02a8.778,8.778,0,0,1,5.139,1.652c1.57-1.244,3.487-1.672,6.118-1.672H145a6.168,6.168,0,0,1,.877.041" transform="translate(-107.469 -3.662)" fill="url(#linear-gradient-16)"/>
    <path id="Path_86910" data-name="Path 86910" d="M184.018,162.2c-2.651,0-4.548.428-6.118,1.672a10.966,10.966,0,0,1,1.509,1.285,18.553,18.553,0,0,1,6.505-2.712,12.359,12.359,0,0,1,2.427-.224h-4.323Z" transform="translate(-133.66 -3.662)" fill="url(#linear-gradient-17)"/>
    <path id="Path_86911" data-name="Path 86911" d="M333.54,181.671c1.142-3.508,2.447-7.77,4.058-12.929,1.448-4.65,4.038-8.137,8.871-9.646l.367-.8c-7.892.469-11.583,4.487-13.439,10.421-3.243,10.38-5.2,17.11-7.1,21.393a64.453,64.453,0,0,0,7.24-8.443" transform="translate(-251.796 -0.557)" fill="url(#linear-gradient-18)"/>
  </g>
</svg>
