<svg xmlns="http://www.w3.org/2000/svg" width="40.052" height="40.052" viewBox="0 0 40.052 40.052">
  <g id="dot-net-framework" transform="translate(0.892)">
    <circle id="Ellipse_1355" data-name="Ellipse 1355" cx="19.751" cy="19.751" r="19.751" transform="translate(-0.341)" fill="#5c2d91"/>
    <path id="Path_87047" data-name="Path 87047" d="M5.72,9A19.751,19.751,0,1,0,33.605,36.886Z" transform="translate(0 -3.445)" fill="#fff" opacity="0.1"/>
    <path id="Path_87048" data-name="Path 87048" d="M6.86,36.159a.833.833,0,0,1-.617-.259.852.852,0,0,1-.253-.617.864.864,0,0,1,.253-.617A.827.827,0,0,1,6.86,34.4a.846.846,0,0,1,.617.265.858.858,0,0,1,.259.617.885.885,0,0,1-.876.876Z" transform="translate(-2.634 -13.168)" fill="#fff"/>
    <path id="Path_87049" data-name="Path 87049" d="M21.651,30.022H20.034L14.25,21.048a3.7,3.7,0,0,1-.358-.7h-.049a11.554,11.554,0,0,1,.062,1.543v8.135H12.59V18.77H14.3l5.629,8.814q.352.549.457.753h.031a11.9,11.9,0,0,1-.08-1.654V18.77h1.315Z" transform="translate(-5.161 -7.185)" fill="#fff"/>
    <path id="Path_87050" data-name="Path 87050" d="M37.981,30.022H32V18.77h5.7v1.191H33.346V23.7h4.061v1.185H33.346v3.9h4.641Z" transform="translate(-12.591 -7.185)" fill="#fff"/>
    <path id="Path_87051" data-name="Path 87051" d="M51.15,19.961H47.879V30.022H46.564V19.961H43.33V18.77h7.82Z" transform="translate(-16.928 -7.185)" fill="#fff"/>
    <path id="Path_87056" data-name="Path 87056" d="M-14.948-4.8h-1.294v1.158h1.2v.333h-1.2v1.467h-.36V-5.129h1.654Zm1.757.972a.463.463,0,0,0-.284-.076.481.481,0,0,0-.4.235,1.073,1.073,0,0,0-.163.624v1.2H-14.4v-2.35h.355V-3.7h.009a.831.831,0,0,1,.245-.388.553.553,0,0,1,.368-.14.673.673,0,0,1,.23.031Zm.44-.2a1.431,1.431,0,0,1,.791-.221q.818,0,.818.867v1.536H-11.5v-.369h-.013a.784.784,0,0,1-.722.425.78.78,0,0,1-.547-.184.635.635,0,0,1-.2-.493q0-.655.774-.762l.709-.1q0-.613-.487-.613a1.13,1.13,0,0,0-.765.293Zm.677,1.066a.878.878,0,0,0-.407.134.392.392,0,0,0-.132.335.363.363,0,0,0,.126.288.489.489,0,0,0,.332.11.611.611,0,0,0,.469-.2.717.717,0,0,0,.186-.505V-3.03Zm4.931,1.116H-7.5V-3.187a1.03,1.03,0,0,0-.124-.585.473.473,0,0,0-.41-.171.51.51,0,0,0-.415.227.857.857,0,0,0-.173.535v1.341h-.353v-1.4q0-.706-.545-.706a.5.5,0,0,0-.414.213.87.87,0,0,0-.165.549v1.341h-.355v-2.35h.355v.373h.009a.79.79,0,0,1,.727-.427.686.686,0,0,1,.41.131.677.677,0,0,1,.254.359.838.838,0,0,1,.78-.49q.776,0,.776.957ZM-4.58-2.925H-6.245a.9.9,0,0,0,.218.623.734.734,0,0,0,.556.216,1.142,1.142,0,0,0,.733-.266v.34a1.35,1.35,0,0,1-.816.23.971.971,0,0,1-.777-.325,1.333,1.333,0,0,1-.281-.9A1.288,1.288,0,0,1-6.3-3.892a.979.979,0,0,1,.765-.35.874.874,0,0,1,.708.3,1.243,1.243,0,0,1,.252.826Zm-.367-.313A.77.77,0,0,0-5.1-3.752a.545.545,0,0,0-.439-.186A.628.628,0,0,0-6-3.747a.874.874,0,0,0-.239.509Zm3.847-.95-.7,2.35h-.369l-.492-1.7A1.032,1.032,0,0,1-2.7-3.752h-.009a.973.973,0,0,1-.049.208L-3.29-1.839h-.353l-.713-2.35h.371l.5,1.782a1.082,1.082,0,0,1,.031.208h.018A1.117,1.117,0,0,1-3.4-2.411l.55-1.777h.324L-2.029-2.4A1.39,1.39,0,0,1-2-2.194h.02A.868.868,0,0,1-1.938-2.4l.487-1.786Zm.254,1.2a1.287,1.287,0,0,1,.319-.922,1.142,1.142,0,0,1,.871-.336,1.045,1.045,0,0,1,.81.323,1.282,1.282,0,0,1,.3.9,1.254,1.254,0,0,1-.32.9,1.105,1.105,0,0,1-.843.339,1.076,1.076,0,0,1-.823-.331A1.219,1.219,0,0,1-.845-2.983ZM-.485-3a.974.974,0,0,0,.218.665.732.732,0,0,0,.58.249.707.707,0,0,0,.576-.24,1.04,1.04,0,0,0,.2-.683,1.058,1.058,0,0,0-.2-.69.7.7,0,0,0-.575-.245.727.727,0,0,0-.581.253A1.026,1.026,0,0,0-.485-3Zm3.722-.825A.463.463,0,0,0,2.952-3.9a.481.481,0,0,0-.4.235,1.073,1.073,0,0,0-.163.624v1.2H2.029v-2.35h.355V-3.7h.009a.831.831,0,0,1,.245-.388.553.553,0,0,1,.368-.14.673.673,0,0,1,.23.031ZM5.545-1.839h-.5L3.985-2.965H3.976v1.127H3.62V-5.315h.355v2.2h.009l1-1.078h.469L4.353-3.05Z" transform="translate(26.253 30.934)" fill="#fff"/>
  </g>
</svg>
