<?xml version="1.0" encoding="utf-8"?>
<!-- Generator: Adobe Illustrator 22.1.0, SVG Export Plug-In . SVG Version: 6.00 Build 0)  -->
<svg height="60" width="60" version="1.1" id="Layer_1" xmlns="http://www.w3.org/2000/svg" xmlns:xlink="http://www.w3.org/1999/xlink" x="0px" y="0px"
	 viewBox="0 0 512 512" style="enable-background:new 0 0 512 512;" xml:space="preserve">
<style type="text/css">
	.st0{fill:#E6A329;}
	.st1{fill:#F1BF22;}
	.st2{fill:#FFFFFF;}
	.st3{fill:#EBEBEB;}
</style>
<g>
	<path class="st0" d="M471,12.7H41l40.3,437.1L256,499.3l174.7-49.5L471,12.7z"/>
	<path class="st1" d="M256,48.3v414l141.5-40.1l34.4-373.9L256,48.3z"/>
	<path class="st2" d="M368.6,101.9H151l-15.2,163.7l0.3-1H321l-6,69.2l-59,17l-59.9-17.2l-3.6-41.9h-54.3l7.7,83.7l110,31.2
		L366,375.4L381.2,211H185l2.5-54.8h136.1l2,31.4h54.8L368.6,101.9z"/>
	<path class="st3" d="M256,101.9H151l-15.2,163.7l0.3-1H256v-53.4h-63.4l2.5-54.8H256V101.9z M192.7,291.6h-54.5l7.7,83.7l110,31.2
		v-55.7l-59.9-17.3L192.7,291.6z"/>
</g>
</svg>
