<svg id="jira" xmlns="http://www.w3.org/2000/svg" xmlns:xlink="http://www.w3.org/1999/xlink" width="115.025" height="118.927" viewBox="0 0 115.025 118.927">
  <defs>
    <linearGradient id="linear-gradient" x1="0.335" y1="0.303" x2="0.002" y2="0.519" gradientUnits="objectBoundingBox">
      <stop offset="0" stop-color="#0052cc"/>
      <stop offset="1" stop-color="#2684ff"/>
    </linearGradient>
    <linearGradient id="linear-gradient-2" x1="-0.413" y1="-0.033" x2="-0.081" y2="-0.248" xlink:href="#linear-gradient"/>
  </defs>
  <path id="path8005" d="M113.647,56.134,62.47,4.956,57.51,0,1.376,56.134a4.711,4.711,0,0,0,0,6.655l35.2,35.195L57.51,118.926l56.138-56.138a4.708,4.708,0,0,0,0-6.655ZM57.51,77.041,39.931,59.464,57.51,41.88,75.092,59.464Z" fill="#2684ff"/>
  <path id="path8015" d="M57.51,41.88A29.608,29.608,0,0,1,57.388.138L18.911,38.6,39.854,59.541Z" fill="url(#linear-gradient)"/>
  <path id="path8025" d="M75.141,59.414,57.51,77.041a29.6,29.6,0,0,1,0,41.885l38.569-38.57L75.141,59.414Z" fill="url(#linear-gradient-2)"/>
</svg>
