<?xml version="1.0" encoding="utf-8"?>
<!-- Generator: Adobe Illustrator 22.1.0, SVG Export Plug-In . SVG Version: 6.00 Build 0)  -->
<svg version="1.1" id="Layer_1" xmlns="http://www.w3.org/2000/svg" xmlns:xlink="http://www.w3.org/1999/xlink" x="0px" y="0px"
	 viewBox="0 0 512 512" style="enable-background:new 0 0 512 512;" xml:space="preserve">
<style type="text/css">
	.st0{display:none;fill:#303030;}
	.st1{fill:#0B6AAE;}
</style>
<rect x="0" y="0" class="st0" width="512" height="512"/>
<g>
	<path class="st1" d="M36,126.2c-45.1,63.7-39.2,148-4.9,215.6c0,2,1,3.9,2,5.9c0,1,1,2,2,2.9c0,1,1,1,1,2c1,1,1,2,2,2.9
		c1,2,2,3.9,2.9,5.9c1,1,1,2,2,2.9c1,2,2.9,3.9,3.9,5.9c1,1,1,2,2,2.9c2,2.9,3.9,4.9,5.9,7.8l0,0l1,1c2,2,2.9,4.9,4.9,6.9
		c1,1,1,2,2,2c2,2,2.9,3.9,4.9,5.9c1,1,1,1,2,2c2,2.9,3.9,4.9,6.9,6.9l0,0l0,0c2,2,3.9,4.9,6.9,6.9c1,1,1,1,2,2c2,2,2.9,2.9,4.9,4.9
		c1,1,1,1,2,2c2,2,4.9,3.9,6.9,6.9l0,0l1,1c2,2,3.9,3.9,6.9,5.9c1,1,2,1,2.9,2c2,1,3.9,2.9,5.9,3.9c1,1,2,1,2.9,2
		c2,2,3.9,2.9,5.9,3.9c1,1,1,1,2,2c0,0,0,0,1,0c2,1,3.9,2.9,5.9,3.9c1,1,2,1,2.9,2c2.9,2,5.9,3.9,8.8,5.9c1,0,2,1,2.9,1
		c2,1,4.9,2.9,6.9,3.9c1,1,2.9,1,3.9,2c2,1,2.9,2,4.9,2.9c0,0,1,0,1,1c1,0,1,1,2,1c2.9,1,4.9,2.9,7.8,3.9c1,0,1,0,2,1
		c2.9,1,5.9,2.9,8.8,3.9c1,0,1,1,2,1c2.9,1,5.9,2,8.8,2.9h1c2.9,1,6.9,2,9.8,2.9c1,0,2,1,2,1c2.9,1,6.9,2,9.8,2.9
		c215.6,39.2,278.3-129.3,278.3-129.3c-52.9,68.6-146,86.2-235.2,66.6c-2.9-1-6.9-2-9.8-2.9c-1,0-2,0-2-1c-2.9-1-6.9-2-9.8-2.9
		c0,0-1,0-1-1c-2.9-1-5.9-2-8.8-2.9c-1,0-2-1-2-1c-2.9-1-5.9-2.9-8.8-3.9c-1,0-1-1-2-1c-2.9-1-4.9-2-7.8-3.9c-1,0-1-1-2-1
		c-2-1-3.9-2-5.9-2.9c-1-1-2.9-1-3.9-2c-2-1-4.9-2.9-6.9-3.9c-1-1-2-1-2-1c-2.9-2-5.9-3.9-8.8-5.9c-1-1-2-1-2.9-2
		c-2-1-4.9-2.9-6.9-3.9c-1-1-1-1-2-2c-2-1-3.9-2.9-5.9-4.9c-1-1-2-1-2.9-2c-2-1-3.9-2.9-5.9-3.9c-1-1-2-1-2.9-2
		c-2-2-4.9-3.9-6.9-5.9c0,0-1,0-1-1c-2-2-4.9-4.9-6.9-6.9c-1-1-1-1-2-2c-2-2-3.9-2.9-4.9-4.9c-1-1-1-1-2-2c-2-2-3.9-4.9-6.9-6.9l0,0
		c-2-2-3.9-4.9-6.9-7.8c-1-1-1-1-2-2c-2-2-2.9-3.9-4.9-5.9c-1-1-1-1-2-2c-2.9-1-4.9-3.9-6.9-5.9C48.7,251.6,31.1,158.5,70.2,83"/>
	<path class="st1" d="M174.1,72.3c-32.3,47-30.4,108.8-4.9,157.8c3.9,7.8,8.8,16.7,14.7,23.5c4.9,6.9,9.8,14.7,16.7,20.6
		c2,2.9,4.9,4.9,6.9,7.8c1,1,1,1,2,2c2,2,4.9,4.9,7.8,6.9l0,0l0,0c2.9,2.9,5.9,4.9,8.8,6.9c1,1,1,1,2,2c2.9,2,5.9,4.9,8.8,6.9l0,0
		c1,1,2.9,2,3.9,2.9c1,0,1,1,2,1c2,1,4.9,2.9,6.9,3.9c0,0,1,0,1,1c2,1,3.9,2,5.9,2.9c1,0,1,1,2,1c1,1,2.9,1,3.9,2c0,0,0,0,1,0
		c2.9,1,5.9,2.9,8.8,3.9c1,0,1,1,2,1c2,1,4.9,2,6.9,2.9c1,0,2,1,2.9,1c2,1,3.9,2,6.9,2c1,0,2,1,2.9,1c2.9,1,5.9,2,9.8,2.9
		C470,363.3,508.2,234.9,508.2,234.9c-34.3,50-101.9,73.5-173.4,54.9c-2.9-1-5.9-2-9.8-2.9c-1,0-2-1-2.9-1c-2-1-4.9-1-6.9-2
		c-1,0-2-1-2.9-1c-2-1-4.9-2-6.9-2.9c-1,0-1-1-2-1c-2.9-1-5.9-2.9-8.8-3.9c-1-1-2.9-2-3.9-2c-1,0-2-1-2.9-1c-2-1-3.9-2-5.9-2.9
		c0,0-1,0-1-1c-2-1-4.9-2.9-6.9-3.9c-1,0-1-1-2-1c-1-1-2.9-2-3.9-2.9c-2.9-2-5.9-3.9-8.8-6.9c-1-1-1-1-2-2
		c-31.4-24.5-55.9-58.8-67.6-97c-12.7-40.2-9.8-84.3,11.8-120.5"/>
	<path class="st1" d="M290.7,32.1c-18.6,28.4-20.6,62.7-7.8,94.1c13.7,33.3,42.1,58.8,75.4,70.5c1,1,2.9,1,3.9,1c1,0,1,0,2,1
		c2,1,3.9,1,5.9,2c92.1,17.6,116.6-47,123.5-56.8c-21.6,31.4-58.8,39.2-103.9,28.4c-3.9-1-7.8-2-10.8-2.9c-3.9-2-8.8-2.9-12.7-4.9
		c-7.8-3.9-15.7-8.8-22.5-13.7c-40.2-30.4-65.6-89.2-39.2-136.2"/>
</g>
</svg>
