<svg id="sql-database" xmlns="http://www.w3.org/2000/svg" width="60" height="80" viewBox="0 0 60 80">
  <g id="Group_48178" data-name="Group 48178">
    <path id="Path_87177" data-name="Path 87177" d="M0,10.929v58.14C0,75.106,13.432,80,30,80V10.929Z" fill="#0072c6" fill-rule="evenodd"/>
    <path id="Path_87178" data-name="Path 87178" d="M29.589,80H30c16.568,0,30-4.892,30-10.929V10.93H29.589V80Z" fill="#1083d8" fill-rule="evenodd"/>
  </g>
  <path id="Path_87180" data-name="Path 87180" d="M60,10.929c0,6.036-13.432,10.929-30,10.929S0,16.965,0,10.929,13.432,0,30,0,60,4.893,60,10.929" fill="#e6e6e6" fill-rule="evenodd"/>
  <path id="Path_87181" data-name="Path 87181" d="M53.866,10.3c0,3.985-10.685,7.211-23.866,7.211S6.132,14.284,6.132,10.3,16.819,3.088,30,3.088,53.866,6.316,53.866,10.3" fill="#7fba00" fill-rule="evenodd"/>
  <path id="Path_87182" data-name="Path 87182" d="M48.867,14.707c3.124-1.219,5-2.745,5-4.4C53.868,6.318,43.183,3.09,30,3.09S6.134,6.318,6.134,10.3c0,1.658,1.877,3.185,5,4.4C15.5,13,22.318,11.9,30,11.9s14.5,1.1,18.866,2.8" fill="#b8d432" fill-rule="evenodd"/>
  <path id="Path_87183" data-name="Path 87183" d="M20.472,51.287a4.963,4.963,0,0,1-1.955,4.2,8.733,8.733,0,0,1-5.4,1.488,10.21,10.21,0,0,1-4.9-1.063V51.658a7.533,7.533,0,0,0,5,1.94,3.385,3.385,0,0,0,2.041-.532,1.667,1.667,0,0,0,.72-1.409,1.976,1.976,0,0,0-.693-1.5,12.7,12.7,0,0,0-2.819-1.647Q8.14,46.467,8.141,42.933a5.045,5.045,0,0,1,1.889-4.11,7.668,7.668,0,0,1,5.016-1.547,12.476,12.476,0,0,1,4.6.731v3.971a7.456,7.456,0,0,0-4.357-1.328,3.213,3.213,0,0,0-1.94.523,1.65,1.65,0,0,0-.712,1.4,2.008,2.008,0,0,0,.575,1.481,9.3,9.3,0,0,0,2.356,1.428,11.673,11.673,0,0,1,3.784,2.563,4.765,4.765,0,0,1,1.125,3.241Zm20.37-4.3a10.909,10.909,0,0,1-1.519,5.83,8.12,8.12,0,0,1-4.277,3.466l5.491,5.113H34.993l-3.921-4.423a9.156,9.156,0,0,1-4.549-1.341,8.386,8.386,0,0,1-3.129-3.42,10.554,10.554,0,0,1-1.1-4.841,11.361,11.361,0,0,1,1.194-5.279,8.509,8.509,0,0,1,3.36-3.566,9.76,9.76,0,0,1,4.965-1.248,9.1,9.1,0,0,1,4.68,1.209A8.222,8.222,0,0,1,39.7,41.924a10.943,10.943,0,0,1,1.144,5.06Zm-4.488.24A7.484,7.484,0,0,0,35.1,42.649a4.051,4.051,0,0,0-3.433-1.681,4.3,4.3,0,0,0-3.552,1.685,7.026,7.026,0,0,0-1.333,4.489A7.023,7.023,0,0,0,28.087,51.6a4.19,4.19,0,0,0,3.472,1.666,4.25,4.25,0,0,0,3.5-1.613,6.882,6.882,0,0,0,1.3-4.426Zm18.893,9.414H43.972V37.6h4.264V53.16h7.01Z" fill="#fff" fill-rule="evenodd"/>
</svg>
